<?xml version="1.0" encoding="UTF-8"?>
<svg width="30px" height="30px" viewBox="0 0 30 30" version="1.1" xmlns="http://www.w3.org/2000/svg" xmlns:xlink="http://www.w3.org/1999/xlink">
    <!-- Generator: Sketch 46.2 (44496) - http://www.bohemiancoding.com/sketch -->
    <title>close-icon</title>
    <desc>Created with Sketch.</desc>
    <defs></defs>
    <g id="Page-1" stroke="none" stroke-width="1" fill="none" fill-rule="evenodd">
        <g id="00" transform="translate(-191.000000, -576.000000)">
            <g id="Group" transform="translate(191.000000, 566.000000)">
                <g id="close-icon" transform="translate(0.000000, 10.000000)">
                    <circle id="Oval-2" fill-opacity="0.600000024" fill="#000000" cx="15" cy="15" r="15"></circle>
                    <path d="M15.5115294,16.6579875 L21.3584628,22.866449 C21.5335601,23.044517 21.7086573,23.044517 21.8837546,22.866449 L22.868677,21.8314291 C23.0437743,21.6533612 23.0437743,21.4752932 22.868677,21.2972253 L17.3859433,15.4877577 L22.868677,9.67829022 C23.0437743,9.50022225 23.0437743,9.32215429 22.868677,9.14408633 L21.8837546,8.14245433 C21.6867704,7.96438637 21.5116732,7.95325727 21.3584628,8.10906645 L15.4884706,14.3420125 L9.64153722,8.13355097 C9.46643994,7.95548301 9.29134267,7.95548301 9.1162454,8.13355097 L8.13132296,9.16857085 C7.95622568,9.34663882 7.95622568,9.52470678 8.13132296,9.70277474 L13.6140567,15.5122423 L8.13132296,21.3217098 C7.95622568,21.4997777 7.95622568,21.6778457 8.13132296,21.8559137 L9.1162454,22.8575457 C9.31322955,23.0356136 9.48832682,23.0467427 9.64153722,22.8909336 L15.5115294,16.6579875 Z" id="icon-close" fill="#FFFFFF"></path>
                </g>
            </g>
        </g>
    </g>
</svg>